<svg id="Capa_1" enable-background="new 0 0 512 512" height="512" viewBox="0 0 512 512" width="512" xmlns="http://www.w3.org/2000/svg"><g><g><path d="m428.224 266.423h-344.448s-22.818 65.876-22.818 90.337 62.783 73.384 195.042 73.384 195.042-48.923 195.042-73.384-22.818-90.337-22.818-90.337z" fill="#e3a67b"/></g><g><path d="m255.902 21.634c-13.472 0-26.561 1.628-39.095 4.677-4.412-15.339-16.154-26.311-29.949-26.311-17.573 0-31.819 17.8-31.819 39.756 0 1.613.086 3.2.235 4.763-14.631-9.657-32.425-9.82-42.92.675-12.426 12.426-9.913 35.086 5.612 50.612.054.054.111.104.166.158-17.099 25.978-27.059 57.073-27.059 90.499v51.762h329.657v-51.762c0-91.033-73.796-164.829-164.828-164.829z" fill="#f2b88f"/></g><g><path d="m176.022 179.873c-27.325-106.607 40.785-153.562 40.785-153.562-4.412-15.339-16.154-26.311-29.95-26.311-17.573 0-31.819 17.8-31.819 39.756 0 1.613.086 3.2.235 4.763-14.631-9.657-32.425-9.82-42.92.675-12.426 12.426-9.913 35.086 5.612 50.612.054.054.111.104.165.158-17.099 25.978-27.059 57.073-27.059 90.499v51.762h84.949v-58.352z" fill="#e3a67b"/></g><g><path d="m400.686 107.623h41.891v143.361h-41.891z" fill="#cde2ff"/></g><g><path d="m400.686 107.623 15.347-48.157c1.504-4.718 8.149-4.804 9.773-.126l16.771 48.283c-10.752 13.394-31.139 13.394-41.891 0z" fill="#ffeee5"/></g><g><circle cx="405.409" cy="250.984" fill="#ffdecf" r="37.17"/></g><g><circle cx="106.391" cy="250.984" fill="#ffcdbe" r="37.17"/></g><g><path d="m400.685 214.113c-66.224-16.222-93.065-64.091-93.065-64.091l10.011 50.857c1.338 6.799-4.285 12.938-11.179 12.24-95.548-9.67-132.507-72.566-132.507-72.566-17.887 57.202-62.616 73.477-62.831 73.555-3.023 11.907-4.623 24.383-4.592 37.238.197 82.288 69.16 150.111 151.44 148.997 81.547-1.105 147.312-67.553 147.312-149.362 0-12.724-1.596-25.075-4.589-36.868z" fill="#ffeee5"/></g><g><path d="m158.031 250.981c0-34.446 11.666-66.164 31.254-91.432-10.561-10.864-15.339-18.995-15.339-18.995-17.887 57.202-62.616 73.477-62.831 73.555-3.023 11.907-4.623 24.383-4.592 37.238.197 82.288 69.16 150.111 151.44 148.997 8.065-.109 15.973-.868 23.681-2.207-70.22-12.209-123.613-73.444-123.613-147.156z" fill="#ffdecf"/></g><g><path d="m411.672 450.189h-40.037v61.811h40.037c17.069 0 30.905-13.837 30.905-30.905s-13.837-30.906-30.905-30.906z" fill="#ffdecf"/></g><g><path d="m140.165 450.189h-30.885c-17.069 0-30.905 13.837-30.905 30.905s13.837 30.906 30.905 30.906h30.884v-61.811z" fill="#ffdecf"/></g><g><path d="m371.635 512h-231.47c-10.391 0-19.156-7.737-20.445-18.048l-15.453-123.622c-1.537-12.297 8.051-23.159 20.445-23.159h262.375c12.393 0 21.982 10.862 20.445 23.159l-15.453 123.622c-1.289 10.311-10.053 18.048-20.444 18.048z" fill="#f2f6fc"/></g><g><path d="m181.531 493.952-15.453-123.622c-1.537-12.297 8.052-23.159 20.445-23.159h-61.811c-12.393 0-21.982 10.862-20.445 23.159l15.453 123.622c1.289 10.311 10.054 18.048 20.445 18.048h61.811c-10.391 0-19.156-7.737-20.445-18.048z" fill="#e9edf5"/></g><g><circle cx="255.9" cy="429.586" fill="#cde2ff" r="30.905"/></g><g><path d="m255.9 429.586c0-11.437 6.218-21.416 15.453-26.761-4.547-2.631-9.821-4.145-15.453-4.145-17.069 0-30.905 13.837-30.905 30.905s13.837 30.905 30.905 30.905c5.631 0 10.906-1.514 15.453-4.145-9.235-5.343-15.453-15.322-15.453-26.759z" fill="#b2d3ff"/></g><g><g><g><ellipse cx="173.945" cy="280.85" fill="#ffa1ac" rx="30.241" ry="24.082"/></g><g><ellipse cx="337.861" cy="280.85" fill="#ffa1ac" rx="30.241" ry="24.082"/></g></g><g><path d="m191.569 265.167c-4.143 0-7.5-3.358-7.5-7.5v-12.362c0-4.142 3.357-7.5 7.5-7.5s7.5 3.358 7.5 7.5v12.362c0 4.143-3.357 7.5-7.5 7.5z" fill="#495560"/></g><g><path d="m320.236 265.167c-4.143 0-7.5-3.358-7.5-7.5v-12.362c0-4.142 3.357-7.5 7.5-7.5s7.5 3.358 7.5 7.5v12.362c0 4.143-3.357 7.5-7.5 7.5z" fill="#495560"/></g><g><path d="m255.903 272.526c-8.669 0-16.912-3.754-22.616-10.299-2.722-3.123-2.396-7.86.727-10.582 3.122-2.722 7.859-2.397 10.582.726 2.854 3.276 6.976 5.154 11.308 5.154 4.331 0 8.452-1.878 11.307-5.154 2.723-3.122 7.459-3.448 10.582-.726 3.123 2.721 3.448 7.459.727 10.582-5.706 6.545-13.949 10.299-22.617 10.299z" fill="#495560"/></g></g><g><g><path d="m416.033 59.465-7.102 22.285c7.053 5.278 16.686 5.474 23.949.488l.711-.488-7.784-22.411c-1.625-4.678-8.271-4.592-9.774.126z" fill="#636978"/></g></g></g></svg>